<svg id="eis" xmlns="http://www.w3.org/2000/svg" viewBox="0 0 154.5 154.5"><defs><style>.cls-1{fill:#9fccf9;}.cls-1,.cls-4,.cls-5,.cls-6,.cls-7{stroke:#000;stroke-miterlimit:10;}.cls-1,.cls-4,.cls-7{stroke-width:0.5px;}.cls-2{fill:#ef8253;}.cls-3{fill:#01abe6;}.cls-4{fill:#f782e1;}.cls-5,.cls-6{font-size:18px;stroke-width:0.25px;font-family:FenwayParkJF;}.cls-5,.cls-7{fill:#fff9cc;}</style></defs><title>logoisbil</title><circle class="cls-1" cx="77.25" cy="77.25" r="77"/><path class="cls-2" d="M100.17,60" transform="translate(-2.75 -1.75)"/><polyline class="cls-3" points="43.25 62.25 45.25 59.25 44.25 59.25"/><path class="cls-4" d="M125,87c0-3-1.42-5.92-4-8.52V63.14h0c0-.2,0-.39,0-.6,0-16.72-18.24-30.29-40.74-30.29S39.58,45.82,39.58,62.54V77.82C36.65,80.58,35,83.68,35,87c0,10.66,17.33,19.44,39.67,20.65,0,.06,0,.1,0,.15,0,4,2.39,7.24,5.34,7.24s5.34-3.24,5.34-7.24c0-.05,0-.09,0-.15C107.67,106.4,125,97.62,125,87Z" transform="translate(-2.75 -1.75)"/><text class="cls-5" transform="matrix(0.99, -0.15, 0.15, 0.99, 51.38, 81.06)">ISBIL</text><text class="cls-6" transform="matrix(0.99, -0.15, 0.15, 0.99, 49.38, 80.06)">ISBIL</text><circle class="cls-7" cx="44.25" cy="111.25" r="9.5"/><circle class="cls-7" cx="110.25" cy="111.25" r="9.5"/></svg>